<svg xmlns="http://www.w3.org/2000/svg" width="2040" height="900" viewBox="0 0 2040 900" font-family="Helvetica,Arial,sans-serif">
<rect width="2040" height="900" fill="white"/>
<defs><filter id="sh" x="-20%" y="-20%" width="140%" height="140%"><feDropShadow dx="0" dy="2" stdDeviation="4" flood-color="#0b1f3a" flood-opacity="0.12"/></filter></defs>
<rect x="40" y="55" width="1250" height="800" rx="42" fill="rgb(228,239,252)" stroke="rgb(47,107,235)" stroke-width="4"/>
<rect x="85" y="205" width="250" height="118" rx="18" fill="rgb(255,255,255)" stroke="rgb(201,211,223)" stroke-width="2" filter="url(#sh)"/>
<text x="210.0" y="253.72" font-size="26" fill="rgb(18,40,75)" text-anchor="middle" font-weight="bold">Workspace</text>
<text x="210.0" y="285.72" font-size="26" fill="rgb(18,40,75)" text-anchor="middle" font-weight="bold">directories</text>
<rect x="450" y="135" width="445" height="448" rx="24" fill="rgb(255,255,255)" stroke="rgb(150,163,181)" stroke-width="3" filter="url(#sh)"/>
<text x="472" y="163" font-size="25" fill="rgb(18,40,75)">microVM-based sandbox</text>
<rect x="470" y="205" width="405" height="258" rx="14" fill="rgb(255,255,255)" stroke="rgb(37,99,235)" stroke-width="2.5" stroke-dasharray="9 7"/>
<text x="492" y="233" font-size="20" fill="rgb(90,100,115)">container</text>
<rect x="548" y="230" width="245" height="74" rx="16" fill="rgb(255,255,255)" stroke="rgb(201,211,223)" stroke-width="2" filter="url(#sh)"/>
<text x="670.5" y="272.5" font-size="25" fill="rgb(18,40,75)" text-anchor="middle" font-weight="bold">Agent / Claude</text>
<rect x="518" y="330" width="300" height="92" rx="16" fill="rgb(255,255,255)" stroke="rgb(201,211,223)" stroke-width="2" filter="url(#sh)"/>
<text x="668.0" y="368.28" font-size="24" fill="rgb(18,40,75)" text-anchor="middle" font-weight="bold">Memory layer</text>
<text x="668.0" y="395.4" font-size="20" fill="rgb(90,100,115)" text-anchor="middle">surrealdb Python SDK</text>
<rect x="492" y="483" width="255" height="84" rx="16" fill="rgb(255,255,255)" stroke="rgb(201,211,223)" stroke-width="2" filter="url(#sh)"/>
<text x="619.5" y="517.06" font-size="23" fill="rgb(18,40,75)" text-anchor="middle" font-weight="bold">SurrealDB (embedded)</text>
<text x="619.5" y="543.9" font-size="20" fill="rgb(90,100,115)" text-anchor="middle">SurrealKV · on-disk</text>
<rect x="940" y="200" width="148" height="102" rx="18" fill="rgb(255,255,255)" stroke="rgb(201,211,223)" stroke-width="2" filter="url(#sh)"/>
<text x="1014.0" y="241.56" font-size="23" fill="rgb(18,40,75)" text-anchor="middle" font-weight="bold">Network</text>
<text x="1014.0" y="270.56" font-size="23" fill="rgb(18,40,75)" text-anchor="middle" font-weight="bold">policies</text>
<rect x="1108" y="200" width="148" height="102" rx="18" fill="rgb(255,255,255)" stroke="rgb(201,211,223)" stroke-width="2" filter="url(#sh)"/>
<text x="1182.0" y="243.06" font-size="23" fill="rgb(18,40,75)" text-anchor="middle" font-weight="bold">Secrets</text>
<text x="1182.0" y="269.9" font-size="20" fill="rgb(90,100,115)" text-anchor="middle">(openai key)</text>
<rect x="950" y="385" width="290" height="118" rx="20" fill="rgb(255,255,255)" stroke="rgb(201,211,223)" stroke-width="2" filter="url(#sh)"/>
<text x="1095.0" y="436.0" font-size="25" fill="rgb(18,40,75)" text-anchor="middle" font-weight="bold">Network Policy</text>
<text x="1095.0" y="464.12" font-size="21" fill="rgb(90,100,115)" text-anchor="middle">/ sbx proxy</text>
<rect x="1410" y="300" width="300" height="132" rx="20" fill="rgb(255,255,255)" stroke="rgb(201,211,223)" stroke-width="2" filter="url(#sh)"/>
<text x="1560.0" y="345.78" font-size="24" fill="rgb(18,40,75)" text-anchor="middle" font-weight="bold">External: OpenAI API</text>
<text x="1560.0" y="372.9" font-size="20" fill="rgb(90,100,115)" text-anchor="middle">text-embedding-3-small</text>
<text x="1560.0" y="398.18" font-size="19" fill="rgb(90,100,115)" text-anchor="middle">api.openai.com</text>
<defs><marker id="m0" markerWidth="12" markerHeight="12" refX="9" refY="5" orient="auto"><path d="M0,0 L10,5 L0,10 z" fill="rgb(37,99,235)"/></marker></defs>
<line x1="335" y1="264" x2="545" y2="264" stroke="rgb(37,99,235)" stroke-width="4" marker-end="url(#m0)"/>
<defs><marker id="m1" markerWidth="12" markerHeight="12" refX="9" refY="5" orient="auto"><path d="M0,0 L10,5 L0,10 z" fill="rgb(37,99,235)"/></marker></defs>
<line x1="670" y1="304" x2="670" y2="328" stroke="rgb(37,99,235)" stroke-width="4" marker-end="url(#m1)"/>
<defs><marker id="m2" markerWidth="12" markerHeight="12" refX="9" refY="5" orient="auto"><path d="M0,0 L10,5 L0,10 z" fill="rgb(37,99,235)"/></marker></defs>
<line x1="600" y1="422" x2="600" y2="481" stroke="rgb(37,99,235)" stroke-width="4" marker-end="url(#m2)"/>
<text x="612" y="457" font-size="19" fill="rgb(29,78,216)">store / query</text>
<defs><marker id="m3" markerWidth="12" markerHeight="12" refX="9" refY="5" orient="auto"><path d="M0,0 L10,5 L0,10 z" fill="rgb(37,99,235)"/></marker></defs>
<line x1="1014" y1="302" x2="1014" y2="383" stroke="rgb(37,99,235)" stroke-width="4" marker-end="url(#m3)"/>
<defs><marker id="m4" markerWidth="12" markerHeight="12" refX="9" refY="5" orient="auto"><path d="M0,0 L10,5 L0,10 z" fill="rgb(37,99,235)"/></marker></defs>
<line x1="1182" y1="302" x2="1120" y2="383" stroke="rgb(37,99,235)" stroke-width="4" marker-end="url(#m4)"/>
<defs><marker id="m5" markerWidth="12" markerHeight="12" refX="9" refY="5" orient="auto"><path d="M0,0 L10,5 L0,10 z" fill="rgb(37,99,235)"/></marker></defs>
<line x1="818" y1="372" x2="947" y2="430" stroke="rgb(37,99,235)" stroke-width="4" marker-end="url(#m5)"/>
<text x="812" y="357" font-size="19" fill="rgb(29,78,216)">embed text</text>
<defs><marker id="m6" markerWidth="12" markerHeight="12" refX="9" refY="5" orient="auto"><path d="M0,0 L10,5 L0,10 z" fill="rgb(37,99,235)"/></marker></defs>
<line x1="1240" y1="428" x2="1410" y2="372" stroke="rgb(37,99,235)" stroke-width="5" marker-end="url(#m6)"/>
<text x="1300" y="386" font-size="19" fill="rgb(29,78,216)">HTTPS</text>
<text x="105" y="822.88" font-size="32" fill="rgb(37,99,235)" text-anchor="start" font-weight="bold">Host machine</text>
<text x="1410" y="508.16" font-size="24" fill="rgb(37,99,235)" text-anchor="start" font-weight="bold">SurrealDB data stays on-disk</text>
<text x="1410" y="534.8" font-size="20" fill="rgb(18,40,75)" text-anchor="start">locally at ~/.surrealdb/data</text>
<text x="1410" y="586.16" font-size="24" fill="rgb(37,99,235)" text-anchor="start" font-weight="bold">Embeddings DO cross to OpenAI</text>
<text x="1410" y="612.8" font-size="20" fill="rgb(18,40,75)" text-anchor="start">via the sbx proxy (key injected)</text>
</svg>